#!OML:ASF E:\emotionWalksFemale\Project 1\Capture day 1\Session 1\Female1.ASF
:FULLY-SPECIFIED
:DEGREES
2186
root 10.237 15.4377 -0.099727 2.94416 -7.81575 -2.83406
lowerback 5.40482 1.16774 4.18387
upperback -2.16157 1.98492 2.25232
thorax -5.22201 0.880309 -0.200462
lowerneck -4.81677 -4.75549 -4.2429
upperneck 43.294 -11.2223 10.3297
head 17.8889 -4.15988 3.81438
rclavicle 1.32627e-015 1.98785e-014
rhumerus -41.2425 -1.9147 -81.3724
rradius 29.6066
rwrist 20.7766
rhand -7.69395 -50.7103
rfingers 7.12502
rthumb 18.2033 -79.8785
lclavicle 1.32627e-015 1.98785e-014
lhumerus -39.6968 12.7081 76.6066
lradius 33.4833
lwrist -14.8752
lhand -4.69318 -33.9685
lfingers 7.12502
lthumb 21.0882 -5.0952
rfemur 11.4825 10.2595 33.1362
rtibia 18.4575
rfoot -11.1452 -16.1087
rtoes -8.79174
lfemur -28.4294 -24.7827 -15.805
ltibia 28.9418
lfoot -17.2836 20.1624
ltoes 10.4704
2187
root 10.2484 15.4471 0.00735637 2.86146 -7.8249 -2.69096
lowerback 5.29589 1.2317 4.0426
upperback -2.11748 2.04861 2.19874
thorax -5.11384 0.918044 -0.180376
lowerneck -4.75018 -4.78071 -4.43234
upperneck 43.2998 -11.2351 10.377
head 17.8964 -4.19213 3.87272
rclavicle -1.17966e-014 1.35174e-014
rhumerus -41.4757 -2.05518 -81.1598
rradius 29.7484
rwrist 20.931
rhand -7.59225 -50.7194
rfingers 7.12502
rthumb 18.3011 -79.8785
lclavicle -1.17966e-014 1.35174e-014
lhumerus -39.6082 12.5632 76.8161
lradius 33.5281
lwrist -14.863
lhand -4.77098 -34.1311
lfingers 7.12502
lthumb 21.0134 -5.24953
rfemur 11.5169 9.74305 32.6844
rtibia 19.1899
rfoot -10.8866 -15.369
rtoes -9.60927
lfemur -27.7752 -24.4241 -16.3939
ltibia 28.8415
lfoot -17.1207 19.6486
ltoes 10.817
2188
root 10.2588 15.4556 0.0941608 2.87341 -7.83505 -2.71851
lowerback 5.47748 1.27853 4.03594
upperback -2.17659 2.12421 2.19712
thorax -5.27722 0.952141 -0.190575
lowerneck -4.80104 -4.78936 -4.55049
upperneck 43.4377 -11.2017 10.2907
head 17.9906 -4.20241 3.86661
rclavicle 1.14177e-014 3.97569e-015
rhumerus -41.6483 -2.22908 -80.9388
rradius 29.7436
rwrist 21.2492
rhand -7.61415 -50.5178
rfingers 7.12502
rthumb 18.2801 -79.6788
lclavicle 1.14177e-014 3.97569e-015
lhumerus -39.6401 12.4959 76.9881
lradius 33.793
lwrist -14.8007
lhand -4.52944 -33.9943
lfingers 7.12502
lthumb 21.2455 -5.13867
rfemur 11.3431 9.36353 32.442
rtibia 19.9393
rfoot -10.614 -14.7128
rtoes -10.1601
lfemur -27.3906 -23.9346 -16.6654
ltibia 28.7481
lfoot -16.7433 19.0556
ltoes 11.0439
2189
root 10.2733 15.4705 0.189235 2.99428 -7.904 -2.71174
lowerback 5.48753 1.35225 4.12842
upperback -2.30702 2.2326 2.12552
thorax -5.41048 0.99755 -0.328541
lowerneck -4.78684 -4.76506 -4.44422
upperneck 43.548 -11.0955 10.0589
head 18.0052 -4.16485 3.7593
rclavicle -3.41195e-015 -1.59028e-014
rhumerus -41.7989 -2.24647 -80.8377
rradius 29.5844
rwrist 21.3132
rhand -7.23926 -50.7752
rfingers 7.12502
rthumb 18.6407 -79.9021
lclavicle -3.41195e-015 -1.59028e-014
lhumerus -39.8252 12.2759 77.1241
lradius 34.151
lwrist -14.5832
lhand -4.17389 -33.8641
lfingers 7.12502
lthumb 21.587 -5.04728
rfemur 11.0546 8.98287 32.0766
rtibia 20.7019
rfoot -10.088 -14.1384
rtoes -10.9663
lfemur -27.1143 -23.8617 -16.8522
ltibia 28.6656
lfoot -16.7284 18.8547
ltoes 11.194
2190
root 10.2893 15.4831 0.293474 2.99858 -7.95714 -2.61384
lowerback 5.3281 1.42465 4.11274
upperback -2.27513 2.31368 2.06
thorax -5.28087 1.03979 -0.390823
lowerneck -4.86172 -4.73748 -4.4211
upperneck 43.5275 -11.0213 10.0054
head 17.993 -4.13222 3.73873
rclavicle 5.93248e-016 1.51076e-014
rhumerus -41.8201 -2.25035 -80.704
rradius 29.4794
rwrist 21.3216
rhand -6.61328 -51.2884
rfingers 7.12502
rthumb 19.2427 -80.3564
lclavicle 5.93248e-016 1.51076e-014
lhumerus -39.7152 12.1546 77.3463
lradius 34.2653
lwrist -14.4557
lhand -4.08484 -33.8038
lfingers 7.12502
lthumb 21.6725 -4.99681
rfemur 10.9262 8.54328 31.6227
rtibia 21.4827
rfoot -9.46512 -13.4115
rtoes -11.2623
lfemur -26.5905 -23.7961 -17.2728
ltibia 28.6027
lfoot -16.8699 18.7481
ltoes 9.97075
2191
root 10.3015 15.4896 0.395258 2.91591 -7.95969 -2.58949
lowerback 5.25791 1.47661 4.07197
upperback -2.18495 2.37142 2.05237
thorax -5.14529 1.07305 -0.378286
lowerneck -5.01653 -4.7545 -4.60601
upperneck 43.5132 -11.0603 10.1472
head 18.0616 -4.15587 3.83186
rclavicle -2.218e-014 1.43125e-014
rhumerus -41.9071 -2.2889 -80.5195
rradius 29.5373
rwrist 21.3618
rhand -6.76096 -51.0209
rfingers 7.12502
rthumb 19.1007 -80.103
lclavicle -2.218e-014 1.43125e-014
lhumerus -39.6429 12.0451 77.6431
lradius 34.5135
lwrist -14.3951
lhand -4.2334 -33.9234
lfingers 7.12502
lthumb 21.5298 -5.10003
rfemur 10.8877 8.10318 31.2923
rtibia 22.2604
rfoot -8.94163 -12.4231
rtoes -9.78226
lfemur -26.0008 -23.6101 -17.665
ltibia 28.5654
lfoot -16.8112 18.5815
ltoes 9.00661
2192
root 10.3135 15.5002 0.490615 2.94466 -7.97381 -2.64907
lowerback 5.25468 1.52011 4.11652
upperback -2.20545 2.43307 2.04427
thorax -5.1608 1.10142 -0.417369
lowerneck -5.07037 -4.76758 -4.69067
upperneck 43.5486 -11.0617 10.1443
head 18.1049 -4.16757 3.84733
rclavicle -4.63479e-014 -2.46493e-014
rhumerus -42.0483 -2.27617 -80.3928
rradius 29.6573
rwrist 21.4172
rhand -6.92651 -50.7134
rfingers 7.12502
rthumb 18.9415 -79.8111
lclavicle -4.63479e-014 -2.46493e-014
lhumerus -39.7396 11.7869 77.878
lradius 34.9432
lwrist -14.1056
lhand -4.04603 -34.2034
lfingers 7.12502
lthumb 21.7098 -5.40076
rfemur 10.677 7.69905 31.0204
rtibia 23.0642
rfoot -8.36464 -11.5193
rtoes -8.15963
lfemur -25.6018 -23.3924 -17.893
ltibia 28.5479
lfoot -16.6063 18.4306
ltoes 8.94031
2193
root 10.3264 15.511 0.587733 2.97171 -8.03523 -2.69288
lowerback 5.13026 1.55374 4.13938
upperback -2.17272 2.46992 2.02993
thorax -5.05271 1.12108 -0.444037
lowerneck -5.14292 -4.72794 -4.40735
upperneck 43.6064 -10.8971 9.75925
head 18.07 -4.09252 3.63624
rclavicle -5.17151e-015 -2.78299e-015
rhumerus -41.9825 -2.05922 -80.4043
rradius 29.6604
rwrist 21.158
rhand -6.78218 -50.7985
rfingers 7.12502
rthumb 19.0803 -79.8826
lclavicle -5.17151e-015 -2.78299e-015
lhumerus -39.6897 11.4983 78.0923
lradius 35.3283
lwrist -13.5739
lhand -3.53982 -34.0149
lfingers 7.12502
lthumb 22.1958 -5.2692
rfemur 10.4533 7.26432 30.7012
rtibia 23.896
rfoot -7.76302 -10.7749
rtoes -8.27858
lfemur -25.1532 -23.2242 -18.1413
ltibia 28.5284
lfoot -16.8066 18.2203
ltoes 10.5853
2194
root 10.3368 15.52 0.687911 2.93139 -8.09336 -2.69118
lowerback 5.06708 1.58355 4.08439
upperback -2.17978 2.50136 2.00923
thorax -5.02415 1.13863 -0.435802
lowerneck -5.15907 -4.68522 -4.19138
upperneck 43.7311 -10.7559 9.44481
head 18.0812 -4.03197 3.4741
rclavicle 6.44497e-016 7.95139e-015
rhumerus -42.0331 -1.72921 -80.4713
rradius 29.5941
rwrist 20.7879
rhand -6.99294 -50.5394
rfingers 7.12502
rthumb 18.8776 -79.6434
lclavicle 6.44497e-016 7.95139e-015
lhumerus -39.691 11.1833 78.3181
lradius 35.6091
lwrist -13.1064
lhand -3.39224 -34.1339
lfingers 7.12502
lthumb 22.3375 -5.4052
rfemur 10.2501 6.89214 30.3691
rtibia 24.8234
rfoot -7.20881 -10.1017
rtoes -9.01065
lfemur -24.6077 -23.2109 -18.4376
ltibia 28.4618
lfoot -16.9909 18.1526
ltoes 10.7839
2195
root 10.3487 15.5297 0.785795 2.88789 -8.0857 -2.61651
lowerback 5.1608 1.60167 4.02537
upperback -2.25534 2.52727 1.94682
thorax -5.15524 1.14912 -0.474041
lowerneck -5.22745 -4.66734 -4.23182
upperneck 43.8591 -10.7293 9.4305
head 18.179 -4.02499 3.48537
rclavicle 2.18407e-014 -7.55382e-015
rhumerus -42.1996 -1.54847 -80.4572
rradius 29.6137
rwrist 20.6988
rhand -6.93695 -50.4127
rfingers 7.12502
rthumb 18.9315 -79.5114
lclavicle 2.18407e-014 -7.55382e-015
lhumerus -39.7426 10.8097 78.5237
lradius 35.8596
lwrist -12.7647
lhand -3.45936 -34.3752
lfingers 7.12502
lthumb 22.273 -5.63876
rfemur 9.95948 6.51177 29.9402
rtibia 25.856
rfoot -6.54027 -9.27964
rtoes -8.60604
lfemur -24.0747 -22.9263 -18.8828
ltibia 28.3438
lfoot -16.4721 18.063
ltoes 7.11145
2196
root 10.3634 15.5384 0.880675 2.88877 -8.0193 -2.48203
lowerback 5.1772 1.58504 3.9656
upperback -2.27954 2.4981 1.85077
thorax -5.18882 1.13418 -0.538534
lowerneck -5.18204 -4.61022 -4.23752
upperneck 43.7853 -10.6294 9.44937
head 18.1079 -3.98561 3.50884
rclavicle -9.34613e-015 -7.95139e-015
rhumerus -42.2844 -1.51625 -80.407
rradius 29.6957
rwrist 20.7134
rhand -6.68183 -50.5857
rfingers 7.12502
rthumb 19.1768 -79.6602
lclavicle -9.34613e-015 -7.95139e-015
lhumerus -39.7662 10.4662 78.6982
lradius 36.2233
lwrist -12.4977
lhand -3.43587 -34.0008
lfingers 7.12502
lthumb 22.2956 -5.26706
rfemur 9.54547 6.00619 29.3901
rtibia 26.9368
rfoot -5.67767 -8.32147
rtoes -6.66906
lfemur -23.5962 -22.4108 -19.4178
ltibia 28.1993
lfoot -15.763 17.9685
ltoes 0.402637
2197
root 10.3753 15.546 0.975719 2.84297 -7.9699 -2.40386
lowerback 5.19939 1.57241 3.89926
upperback -2.28241 2.47465 1.78541
thorax -5.20484 1.12337 -0.567935
lowerneck -5.05002 -4.55558 -4.2996
upperneck 43.6812 -10.5382 9.51765
head 18.0056 -3.95708 3.56513
rclavicle 3.89319e-015 -2.38542e-015
rhumerus -42.3517 -1.56228 -80.3273
rradius 29.7227
rwrist 20.7321
rhand -6.86146 -50.3944
rfingers 7.12502
rthumb 19.0041 -79.486
lclavicle 3.89319e-015 -2.38542e-015
lhumerus -39.7382 10.2154 78.8414
lradius 36.5136
lwrist -12.2015
lhand -3.40297 -33.9379
lfingers 7.12502
lthumb 22.3272 -5.2079
rfemur 9.15374 5.66059 28.984
rtibia 28.0888
rfoot -4.80818 -7.60394
rtoes -4.97487
lfemur -23.0324 -22.3928 -19.8045
ltibia 28.0336
lfoot -15.82 18.1844
ltoes -3.12053
2198
root 10.3844 15.5548 1.07187 2.74054 -8.00959 -2.42441
lowerback 5.30453 1.61375 3.84451
upperback -2.28454 2.53145 1.77777
thorax -5.26677 1.15199 -0.554072
lowerneck -5.18383 -4.61129 -4.39
upperneck 43.8113 -10.6057 9.47422
head 18.1355 -3.99827 3.55459
rclavicle 1.68882e-014 -7.95139e-015
rhumerus -42.4196 -1.48445 -80.257
rradius 29.7716
rwrist 20.4694
rhand -7.28482 -49.827
rfingers 7.12502
rthumb 18.5969 -78.958
lclavicle 1.68882e-014 -7.95139e-015
lhumerus -39.699 10.0223 78.9896
lradius 36.7711
lwrist -11.8497
lhand -3.44253 -34.2969
lfingers 7.12502
lthumb 22.2892 -5.56242
rfemur 8.7735 5.43441 28.697
rtibia 29.3466
rfoot -4.05868 -6.80427
rtoes -5.92967
lfemur -22.3704 -22.6716 -20.0483
ltibia 27.8337
lfoot -16.4309 18.3597
ltoes 0.349291
